<svg width="32" height="32" viewBox="0 0 32 32" fill="none" xmlns="http://www.w3.org/2000/svg">
<rect x="0.5" y="0.5" width="31" height="31" rx="15.5" fill="#181A1C"/>
<rect x="0.5" y="0.5" width="31" height="31" rx="15.5" stroke="#323436"/>
<path d="M16.0002 11.3334V11.34V11.3334ZM16.0002 16V16.0067V16ZM16.0002 20.6667V20.6734V20.6667ZM16.0002 12C15.8234 12 15.6538 11.9298 15.5288 11.8048C15.4037 11.6797 15.3335 11.5102 15.3335 11.3334C15.3335 11.1565 15.4037 10.987 15.5288 10.8619C15.6538 10.7369 15.8234 10.6667 16.0002 10.6667C16.177 10.6667 16.3465 10.7369 16.4716 10.8619C16.5966 10.987 16.6668 11.1565 16.6668 11.3334C16.6668 11.5102 16.5966 11.6797 16.4716 11.8048C16.3465 11.9298 16.177 12 16.0002 12ZM16.0002 16.6667C15.8234 16.6667 15.6538 16.5964 15.5288 16.4714C15.4037 16.3464 15.3335 16.1768 15.3335 16C15.3335 15.8232 15.4037 15.6536 15.5288 15.5286C15.6538 15.4036 15.8234 15.3334 16.0002 15.3334C16.177 15.3334 16.3465 15.4036 16.4716 15.5286C16.5966 15.6536 16.6668 15.8232 16.6668 16C16.6668 16.1768 16.5966 16.3464 16.4716 16.4714C16.3465 16.5964 16.177 16.6667 16.0002 16.6667ZM16.0002 21.3334C15.8234 21.3334 15.6538 21.2631 15.5288 21.1381C15.4037 21.0131 15.3335 20.8435 15.3335 20.6667C15.3335 20.4899 15.4037 20.3203 15.5288 20.1953C15.6538 20.0703 15.8234 20 16.0002 20C16.177 20 16.3465 20.0703 16.4716 20.1953C16.5966 20.3203 16.6668 20.4899 16.6668 20.6667C16.6668 20.8435 16.5966 21.0131 16.4716 21.1381C16.3465 21.2631 16.177 21.3334 16.0002 21.3334Z" stroke="white" stroke-width="1.4" stroke-linecap="round" stroke-linejoin="round"/>
</svg>
