<svg width="16" height="17" viewBox="0 0 16 17" fill="none" xmlns="http://www.w3.org/2000/svg">
<path fill-rule="evenodd" clip-rule="evenodd" d="M6 2.49997C4.93913 2.49997 3.92172 2.9214 3.17157 3.67155C2.42143 4.42169 2 5.43911 2 6.49997C2 7.56084 2.42143 8.57826 3.17157 9.3284C3.92172 10.0785 4.93913 10.5 6 10.5C7.06087 10.5 8.07828 10.0785 8.82843 9.3284C9.57857 8.57826 10 7.56084 10 6.49997C10 5.43911 9.57857 4.42169 8.82843 3.67155C8.07828 2.9214 7.06087 2.49997 6 2.49997ZM1.13461e-07 6.49997C-0.00012039 5.55568 0.222642 4.62469 0.650171 3.78271C1.0777 2.94074 1.69792 2.21157 2.4604 1.6545C3.22287 1.09743 4.10606 0.728185 5.03815 0.576806C5.97023 0.425427 6.92488 0.496184 7.82446 0.783323C8.72405 1.07046 9.54315 1.56587 10.2152 2.22927C10.8872 2.89266 11.3931 3.70531 11.6919 4.60111C11.9906 5.49691 12.0737 6.45057 11.9343 7.38453C11.795 8.31849 11.4372 9.20637 10.89 9.97597L15.707 14.793C15.8892 14.9816 15.99 15.2342 15.9877 15.4964C15.9854 15.7586 15.8802 16.0094 15.6948 16.1948C15.5094 16.3802 15.2586 16.4854 14.9964 16.4876C14.7342 16.4899 14.4816 16.3891 14.293 16.207L9.477 11.391C8.57936 12.0293 7.52335 12.4081 6.42468 12.4861C5.326 12.5641 4.22707 12.3381 3.2483 11.8329C2.26953 11.3278 1.44869 10.563 0.875723 9.62233C0.30276 8.68165 -0.000214051 7.60141 1.13461e-07 6.49997V6.49997Z" fill="#727477"/>
</svg>
