<svg width="26" height="26" viewBox="0 0 26 26" fill="none" xmlns="http://www.w3.org/2000/svg">
<path d="M13.25 0.5C6.35526 0.5 0.75 6.10526 0.75 13C0.75 19.8947 6.35526 25.5 13.25 25.5C20.1447 25.5 25.75 19.8947 25.75 13C25.75 6.10526 20.1447 0.5 13.25 0.5ZM13.25 23.7632C7.30263 23.7632 2.48684 18.9474 2.48684 13C2.48684 7.05263 7.30263 2.23684 13.25 2.23684C19.1974 2.23684 24.0132 7.05263 24.0132 13C24.0132 18.9474 19.1974 23.7632 13.25 23.7632Z" fill="#808080"/>
<path d="M17.3551 6.13157L10.8288 8.97368C10.1183 9.28946 9.53935 9.8421 9.22356 10.5789L6.38146 17.1053C6.03935 17.8947 6.19725 18.8158 6.82882 19.421C7.22356 19.8158 7.77619 20.0263 8.30251 20.0263C8.59198 20.0263 8.88146 19.9737 9.14461 19.8421L15.6709 17C16.3815 16.6842 16.9604 16.1316 17.2762 15.3947L20.1183 8.86841C20.4604 8.07894 20.3025 7.15789 19.6709 6.55262C19.0657 5.97367 18.1446 5.78946 17.3551 6.13157ZM18.5393 8.21052L15.6972 14.7368C15.5657 15.0526 15.3025 15.3158 14.9867 15.4474L8.4604 18.2895C8.24988 18.3947 8.1183 18.2895 8.03935 18.2105C7.9604 18.1316 7.88146 18 7.9604 17.7895L10.8025 11.2631C10.9341 10.9474 11.1972 10.6842 11.513 10.5526L18.0393 7.71052C18.092 7.6842 18.1446 7.6842 18.1972 7.6842C18.3288 7.6842 18.4078 7.73683 18.4604 7.78946C18.513 7.86841 18.6183 7.99999 18.5393 8.21052Z" fill="#808080"/>
<path d="M13.2498 14.7105C14.1945 14.7105 14.9604 13.9447 14.9604 13C14.9604 12.0553 14.1945 11.2895 13.2498 11.2895C12.3051 11.2895 11.5393 12.0553 11.5393 13C11.5393 13.9447 12.3051 14.7105 13.2498 14.7105Z" fill="#808080"/>
</svg>
