<svg width="37" height="34" viewBox="0 0 37 34" fill="none" xmlns="http://www.w3.org/2000/svg">
<path d="M8.37751 8H29M22.178 15.7143H29M22.178 20.8571H29M22.178 26H29M8 17C8 16.659 8.1358 16.332 8.37751 16.0909C8.61923 15.8497 8.94707 15.7143 9.28891 15.7143H17.0223C17.3642 15.7143 17.692 15.8497 17.9337 16.0909C18.1754 16.332 18.3112 16.659 18.3112 17V24.7143C18.3112 25.0553 18.1754 25.3823 17.9337 25.6234C17.692 25.8645 17.3642 26 17.0223 26H9.28891C8.94707 26 8.61923 25.8645 8.37751 25.6234C8.1358 25.3823 8 25.0553 8 24.7143V17Z" stroke="white" stroke-width="2" stroke-linecap="round" stroke-linejoin="round"/>
</svg>
