<svg width="26" height="26" viewBox="0 0 26 26" fill="none" xmlns="http://www.w3.org/2000/svg">
<path d="M21.5568 0.5C23.5965 0.5 25.25 2.15349 25.25 4.19318V21.8068C25.25 23.8465 23.5965 25.5 21.5568 25.5H3.94318C1.90349 25.5 0.25 23.8465 0.25 21.8068V4.19318C0.25 2.15349 1.90349 0.5 3.94318 0.5H21.5568ZM1.95455 21.8068C1.95455 22.9051 2.84489 23.7955 3.94318 23.7955H21.5568C22.6551 23.7955 23.5455 22.9051 23.5455 21.8068V15.8409H17.5046C17.1159 18.0238 15.2608 19.6992 12.9944 19.8121L12.75 19.8182C10.4555 19.8182 8.53468 18.218 8.04262 16.0728L7.99542 15.8409H1.95455V21.8068ZM21.5568 2.20455H3.94318C2.84489 2.20455 1.95455 3.09489 1.95455 4.19318V14.1364H8.77273C9.2042 14.1364 9.56079 14.457 9.61722 14.873L9.625 14.9886C9.625 16.7145 11.0241 18.1136 12.75 18.1136C14.4759 18.1136 15.875 16.7145 15.875 14.9886C15.875 14.5572 16.1956 14.2006 16.6116 14.1441L16.7273 14.1364H23.5455V4.19318C23.5455 3.09489 22.6551 2.20455 21.5568 2.20455Z" fill="white"/>
</svg>
