<svg width="36" height="36" viewBox="0 0 36 36" fill="none" xmlns="http://www.w3.org/2000/svg">
<path fill-rule="evenodd" clip-rule="evenodd" d="M18 0C8.05846 0 0 8.05846 0 18C0 27.9415 8.05846 36 18 36C27.9415 36 36 27.9415 36 18C36 8.05846 27.9415 0 18 0ZM19.3846 12.4615C19.3846 12.0943 19.2387 11.7421 18.9791 11.4825C18.7194 11.2228 18.3672 11.0769 18 11.0769C17.6328 11.0769 17.2806 11.2228 17.0209 11.4825C16.7613 11.7421 16.6154 12.0943 16.6154 12.4615V16.6154H12.4615C12.0943 16.6154 11.7421 16.7613 11.4825 17.0209C11.2228 17.2806 11.0769 17.6328 11.0769 18C11.0769 18.3672 11.2228 18.7194 11.4825 18.9791C11.7421 19.2387 12.0943 19.3846 12.4615 19.3846H16.6154V23.5385C16.6154 23.9057 16.7613 24.2579 17.0209 24.5175C17.2806 24.7772 17.6328 24.9231 18 24.9231C18.3672 24.9231 18.7194 24.7772 18.9791 24.5175C19.2387 24.2579 19.3846 23.9057 19.3846 23.5385V19.3846H23.5385C23.9057 19.3846 24.2579 19.2387 24.5175 18.9791C24.7772 18.7194 24.9231 18.3672 24.9231 18C24.9231 17.6328 24.7772 17.2806 24.5175 17.0209C24.2579 16.7613 23.9057 16.6154 23.5385 16.6154H19.3846V12.4615Z" fill="#2E8AF6"/>
</svg>
